<svg id="Calque_1" data-name="Calque 1" xmlns="http://www.w3.org/2000/svg" xmlns:xlink="http://www.w3.org/1999/xlink" viewBox="0 0 512 512"><defs><style>.cls-1,.cls-5,.cls-7{fill:none;}.cls-2{font-size:59.73px;font-family:FalconPunch, Falcon Punch;}.cls-3{clip-path:url(#clip-path);}.cls-4{clip-path:url(#clip-path-2);}.cls-5,.cls-7{stroke:#000;stroke-miterlimit:10;}.cls-5{stroke-width:12.99px;}.cls-6{clip-path:url(#clip-path-3);}.cls-7{stroke-width:13px;}</style><clipPath id="clip-path"><rect class="cls-1" x="257.79" y="43.61" width="154.43" height="329.46"/></clipPath><clipPath id="clip-path-2"><rect class="cls-1" x="64.63" y="32.18" width="181.49" height="368.16"/></clipPath><clipPath id="clip-path-3"><rect class="cls-1" x="257.73" y="31.87" width="178.44" height="368.16" transform="translate(693.91 431.9) rotate(-180)"/></clipPath></defs><title>Plan de travail 12</title><text class="cls-2" transform="translate(10.2 447.43)">361 DEGREES</text><g class="cls-3"><path d="M402.61,215c.6,80.25-65.9,146.34-146.79,145.7-79-.63-145.43-63.63-145.17-146.12s64.74-146.16,146.73-146A144.93,144.93,0,0,1,402.61,215Zm-250.4,6c-9.15,0-18.31,0-27.47,0-3,0-4.62.92-4.41,4.24a123.78,123.78,0,0,0,15.49,52.56c1,1.87,3.91,3.8,6,3.84,15.87.32,31.74.23,47.62.15,4.24,0,5-1.29,3.84-5.52-1.4-5.3-3.19-10.53-4-15.91-1.85-11.55-3.32-23.15-4.68-34.76-.41-3.52-1.92-4.68-5.29-4.63C170.22,221.07,161.22,221,152.21,221Zm-.36-12.48c8.71,0,17.43-.2,26.13.09,4.45.14,6.36-1.34,6.59-5.87A211.24,211.24,0,0,1,193,153.8c1.57-5.36.92-6.24-4.64-6.25-14.83-.05-29.65.14-44.47-.12-4.64-.08-7.24,1.57-9.23,5.72-7.5,15.67-13.11,31.81-14,49.36-.29,5.55-.14,6,5.6,6C134.73,208.53,143.29,208.51,151.85,208.51ZM349.11,281.8c7.33,0,14.67.26,22-.16,2.19-.13,5.25-1.61,6.24-3.4,9-16.33,14.73-33.7,15.75-52.48.2-3.71-1.13-4.84-4.66-4.82q-25.65.15-51.29,0c-3.66,0-5.16,1.33-5.29,5.07a190.8,190.8,0,0,1-8.77,50.19c-1.38,4.48-.65,5.52,4.07,5.57C334.45,281.87,341.78,281.8,349.11,281.8Zm13.63-73.29c8.4,0,16.81-.15,25.21.07,4.09.1,5.29-1.42,5.09-5.41-1-18.51-7-35.49-15.27-51.81-1.52-3-3.91-3.89-7.12-3.87-14.06.09-28.12,0-42.18,0-5.89,0-6.63,1.13-5,6.91,4.63,16,7.94,32.22,8.32,48.91.1,4.09,1.93,5.26,5.68,5.19C345.92,208.41,354.33,208.51,362.74,208.51Zm-139.23,0c8.23,0,16.48-.12,24.71.05,4,.09,5.85-1.24,5.82-5.5-.13-16.47,0-32.95-.08-49.43,0-5.08-1.09-6.07-6.32-6.09-12.36,0-24.72.12-37.07-.08-4.25-.07-6.36,1.62-7.57,5.57a218.85,218.85,0,0,0-9.44,50.07c-.27,4,1.27,5.53,5.23,5.46C207,208.4,215.27,208.51,223.51,208.51Zm.36,12.48c-8.55,0-17.1.07-25.65,0-3.62,0-4.9,1.59-4.68,5.06a211.69,211.69,0,0,0,9.73,51c1.08,3.41,3.06,4.89,6.7,4.86q19-.18,38,0c4.26,0,6.06-1.68,6-6q-.17-24.73,0-49.48c0-3.89-1.45-5.51-5.41-5.43C240.37,221.1,232.12,221,223.87,221Zm39.18-43.21c0,8.7.07,17.4,0,26.09,0,3.25,1.11,4.69,4.52,4.67q25.39-.14,50.8,0c3.38,0,4.82-1.52,4.52-4.73-.49-5.3-.68-10.68-1.75-15.87-2.47-12-5.37-23.94-8.13-35.9-.78-3.35-3-4.56-6.4-4.54q-19.21.15-38.44,0c-3.71,0-5.21,1.36-5.14,5.12C263.15,161,263,169.39,263.05,177.78Zm0,73.12c0,8.69.06,17.39,0,26.08,0,3.23,1.25,4.82,4.56,4.81q19.68,0,39.35,0c3.18,0,5.15-1.35,6-4.47,1.14-4.11,2.85-8.09,3.59-12.25,2.3-12.84,4.3-25.72,6.31-38.61.58-3.74-1-5.57-5.09-5.53q-24.93.21-49.88,0c-3.5,0-4.94,1.19-4.87,4.79C263.15,234.11,263.05,242.51,263.05,250.9ZM235.6,350.33a59.82,59.82,0,0,0-3.37-5.39c-12-14.53-22.72-29.89-30.81-47-1.57-3.31-3.8-4.41-7.18-4.4-13.75.05-27.51,0-41.26.09-1.61,0-3.22,1.08-4.83,1.65.65,1.46,1,3.13,2,4.35q31.07,39.45,80.1,50.33A44.7,44.7,0,0,0,235.6,350.33ZM341,135.2c6.87,0,13.75.09,20.61,0,4.23-.08,5-1.49,2.74-5-8.82-13.85-20-25.33-34.24-33.72C316.49,88.35,301.78,83,286.39,79.52c-1.3-.29-2.79.27-4.19.43.56,1.32.85,2.85,1.72,3.91,12,14.68,22.82,30.15,31,47.33,1.43,3,3.51,4.18,6.85,4.07C328.19,135.06,334.61,135.21,341,135.2ZM235,80.65,234,78.56c-5.09,1-10.25,1.63-15.24,2.94-29,7.61-50.82,25.62-69,48.66a15.39,15.39,0,0,0-1.57,3.6c1.36.48,2.71,1.37,4.08,1.38,13.43.1,26.87.18,40.3-.09a7.15,7.15,0,0,0,5.25-3.14c8.51-16.19,19.68-30.44,31.49-44.27C231.29,85.37,233.09,83,235,80.65ZM284.36,350a21.43,21.43,0,0,0,3.89,0,137.57,137.57,0,0,0,35.25-13.56c16.09-8.86,28.54-21.72,39.44-36.23,1.1-1.47,1.63-3.37,2.42-5.07-1.81-.51-3.61-1.44-5.43-1.46-12.35-.13-24.72.09-37.07-.15-4.13-.08-6.42,1.42-8.08,5.08A230.28,230.28,0,0,1,287,345.18,37.72,37.72,0,0,0,284.36,350ZM254,322.53h0c0-7.78,0-15.56,0-23.33,0-3.47-1.22-5.58-5-5.58-11.13,0-22.27-.08-33.4,0-3.77,0-4.87,1.88-3.44,5.39.91,2.25,2.12,4.39,3.21,6.57,7.9,15.79,17.27,30.5,31.37,41.59,1.67,1.3,3.9,1.88,5.87,2.8.45-2,1.26-4,1.31-6C254.09,336.87,254,329.7,254,322.53Zm0-215.06c0-8.09.05-16.17-.06-24.25,0-1.24-.5-3-1.37-3.53-.7-.43-2.62.3-3.47,1.09-15.43,14.43-29.51,30-39.31,48.93-2.29,4.43-1.75,5.44,3,5.47,11.9.07,23.8-.07,35.7.07,4.24.06,5.61-1.8,5.52-5.82C253.86,122.12,254,114.79,254,107.47Zm9.6,243a12.63,12.63,0,0,0,2.59-.65,35.46,35.46,0,0,0,3.38-2.32c16.37-12.54,26.63-29.45,34.36-48.15,2-4.94,1.53-5.74-4-5.77-10.37-.05-20.75.11-31.11-.07-4.33-.08-5.93,1.48-5.88,5.87.19,15.41.06,30.81.09,46.22A48.59,48.59,0,0,0,263.58,350.5Zm.53-271.89c-.5,1.75-1,2.72-1,3.69-.05,16.32,0,32.64-.06,49,0,3.07,1.6,4,4.31,3.94,10.22,0,20.44,0,30.66,0,3.52,0,4.89-1.4,3.24-4.83-8.56-17.83-18.83-34.5-32.9-48.59A37.87,37.87,0,0,0,264.11,78.61Z"/></g><g class="cls-4"><path d="M194.27,249.84s4.23,54.09,32.21,110.29c0,0,76.9,11.05,128.63-51.5C355.11,308.63,267.16,307,194.27,249.84Z"/><path d="M188,191s-44.7,30.74-79.35,83.1c0,0,28.93,72.1,109,85.57C217.59,359.69,175,282.73,188,191Z"/><path d="M237.37,155.11s-49-23.33-111.64-27.14c0,0-48,61.11-19.59,137.16C106.14,265.13,151.47,189.75,237.37,155.11Z"/><path d="M292.13,179.19s-4.73-54-33.23-110c0,0-77-10.34-128.15,52.69C130.75,121.89,218.71,122.72,292.13,179.19Z"/><path d="M298.84,239.15s44.52-31,78.87-83.55c0,0-29.34-71.93-109.47-84.94C268.24,70.66,311.29,147.37,298.84,239.15Z"/><path d="M248.86,273.87s48.86,23.58,111.51,27.71c0,0,48.27-60.87,20.29-137.06C380.66,164.52,334.94,239.67,248.86,273.87Z"/><circle class="cls-5" cx="243.53" cy="214.9" r="164.37"/></g><g class="cls-6"><ellipse class="cls-7" cx="258.09" cy="214.91" rx="163.63" ry="164.37"/></g></svg>