<svg id="Calque_1" data-name="Calque 1" xmlns="http://www.w3.org/2000/svg" xmlns:xlink="http://www.w3.org/1999/xlink" viewBox="0 0 512 512"><defs><style>.cls-1,.cls-4,.cls-6{fill:none;}.cls-2{clip-path:url(#clip-path);}.cls-3{clip-path:url(#clip-path-2);}.cls-4,.cls-6{stroke:#000;stroke-miterlimit:10;}.cls-4{stroke-width:12.99px;}.cls-5{clip-path:url(#clip-path-3);}.cls-6{stroke-width:13px;}.cls-7{font-size:59.73px;font-family:FalconPunch, Falcon Punch;}</style><clipPath id="clip-path"><rect class="cls-1" x="266.77" y="11.6" width="216.79" height="462.49"/></clipPath><clipPath id="clip-path-2"><rect class="cls-1" x="-4.39" y="-4.44" width="254.78" height="516.83"/></clipPath><clipPath id="clip-path-3"><rect class="cls-1" x="266.69" y="-4.89" width="250.5" height="516.83" transform="translate(783.88 507.06) rotate(-180)"/></clipPath></defs><title>Plan de travail 12 copie</title><g class="cls-2"><path d="M470.07,252.13c.84,112.67-92.5,205.44-206.06,204.54-111-.88-204.16-89.32-203.8-205.12.36-115.64,90.89-205.18,206-204.92A203.46,203.46,0,0,1,470.07,252.13ZM118.56,260.6c-12.85,0-25.7,0-38.56,0-4.16,0-6.49,1.3-6.19,5.95a173.73,173.73,0,0,0,21.74,73.79c1.45,2.62,5.49,5.33,8.37,5.39,22.28.45,44.56.32,66.84.2,6,0,7-1.8,5.4-7.74-2-7.43-4.48-14.78-5.68-22.34-2.59-16.2-4.65-32.49-6.56-48.79-.58-4.94-2.7-6.56-7.44-6.5C143.85,260.72,131.2,260.6,118.56,260.6Zm-.51-17.51c12.23,0,24.47-.29,36.68.11,6.25.21,8.94-1.88,9.26-8.23a296.16,296.16,0,0,1,11.79-68.69c2.2-7.52,1.29-8.75-6.52-8.78-20.81-.06-41.62.2-62.43-.16-6.51-.11-10.16,2.2-13,8-10.53,22-18.4,44.67-19.72,69.29-.41,7.8-.21,8.4,7.85,8.43C94,243.12,106,243.09,118.05,243.09ZM395,346c10.28,0,20.59.37,30.84-.22,3.07-.18,7.37-2.26,8.75-4.77,12.62-22.93,20.68-47.31,22.12-73.68.28-5.2-1.59-6.79-6.55-6.76q-36,.21-72,0c-5.14,0-7.24,1.86-7.42,7.12A267.93,267.93,0,0,1,358.4,338.1c-1.94,6.29-.92,7.75,5.71,7.83C374.39,346.06,384.68,346,395,346ZM414.1,243.08c11.79,0,23.6-.21,35.39.09,5.74.15,7.43-2,7.14-7.58-1.35-26-9.75-49.82-21.42-72.73-2.14-4.21-5.5-5.46-10-5.43-19.74.12-39.47,0-59.21.06-8.26,0-9.3,1.59-6.95,9.71,6.5,22.44,11.16,45.22,11.69,68.66.13,5.74,2.71,7.37,8,7.29C390.49,243,402.3,243.08,414.1,243.08Zm-195.46,0c11.57,0,23.14-.17,34.7.08,5.64.12,8.21-1.75,8.16-7.72-.18-23.13,0-46.26-.11-69.39,0-7.13-1.53-8.52-8.86-8.55-17.35-.07-34.7.17-52.05-.12-6-.1-8.92,2.28-10.63,7.82a308,308,0,0,0-13.25,70.29c-.37,5.6,1.78,7.76,7.35,7.66C195.51,242.93,207.08,243.08,218.64,243.08Zm.52,17.52c-12,0-24,.1-36,0-5.07-.06-6.88,2.23-6.56,7.1a298.12,298.12,0,0,0,13.65,71.56c1.53,4.78,4.3,6.87,9.41,6.82q26.69-.27,53.38,0c6,.05,8.51-2.37,8.47-8.43q-.23-34.73,0-69.46c0-5.46-2-7.73-7.6-7.62C242.31,260.75,230.73,260.59,219.16,260.6Zm55-60.65c0,12.21.1,24.41,0,36.62-.06,4.57,1.56,6.59,6.35,6.56q35.66-.19,71.31,0c4.74,0,6.77-2.13,6.35-6.64-.7-7.44-1-15-2.46-22.27-3.47-16.87-7.54-33.62-11.42-50.4-1.09-4.71-4.22-6.41-9-6.37q-27,.21-54,0c-5.2-.05-7.3,1.9-7.2,7.18C274.3,176.39,274.15,188.17,274.15,200Zm0,102.63c0,12.21.08,24.42-.05,36.62,0,4.54,1.76,6.77,6.4,6.76q27.63-.07,55.25,0c4.46,0,7.22-1.9,8.43-6.29,1.6-5.75,4-11.35,5-17.19,3.23-18,6-36.11,8.86-54.2.82-5.25-1.35-7.82-7.14-7.77-23.34.21-46.69.17-70,0-4.92,0-6.93,1.67-6.84,6.72C274.3,279,274.15,290.81,274.16,302.58ZM235.62,442.17c-2.33-3.76-3.31-5.84-4.72-7.56-16.82-20.41-31.9-42-43.26-65.92-2.2-4.66-5.34-6.2-10.08-6.19-19.31.07-38.61-.05-57.92.13-2.27,0-4.52,1.51-6.78,2.32.92,2.05,1.46,4.39,2.81,6.11q43.59,55.38,112.44,70.65C229.86,442.09,231.71,442,235.62,442.17Zm148-302c9.64,0,19.29.12,28.93,0,5.93-.1,7-2.08,3.84-7.08C404,113.59,388.27,97.48,368.33,85.7,349.18,74.4,328.53,66.93,306.92,62c-1.82-.41-3.91.37-5.88.6.78,1.85,1.19,4,2.41,5.49,16.88,20.6,32,42.32,43.55,66.43,2,4.23,4.93,5.88,9.61,5.73C365.61,140,374.61,140.18,383.62,140.17ZM234.73,63.59l-1.3-2.93C226.29,62,219.05,63,212,64.78c-40.77,10.68-71.34,36-96.86,68.31-1.11,1.4-1.49,3.36-2.21,5.06,1.91.68,3.81,1.92,5.73,1.94,18.86.14,37.72.25,56.58-.13,2.54-.05,6.19-2.19,7.36-4.41,12-22.73,27.63-42.73,44.21-62.14C229.57,70.22,232.1,66.87,234.73,63.59Zm69.34,378.13c2.7,0,4.15.27,5.47,0a193.59,193.59,0,0,0,49.48-19c22.58-12.45,40.06-30.5,55.36-50.87,1.55-2.06,2.29-4.73,3.4-7.12-2.54-.71-5.07-2-7.62-2-17.35-.19-34.7.12-52-.22-5.8-.11-9,2-11.34,7.14a324,324,0,0,1-39,65.4C306.4,436.65,305.63,438.79,304.07,441.72Zm-42.63-38.58h0c0-10.92-.06-21.83,0-32.75,0-4.87-1.72-7.83-7-7.83-15.62,0-31.25-.11-46.88,0-5.29.06-6.83,2.64-4.83,7.57,1.28,3.16,3,6.16,4.5,9.22,11.1,22.16,24.25,42.82,44.05,58.38,2.33,1.83,5.47,2.65,8.23,3.94.64-2.79,1.78-5.58,1.84-8.38C261.58,423.27,261.44,413.2,261.44,403.14Zm0-301.9c0-11.35.07-22.7-.09-34,0-1.74-.69-4.21-1.92-5-1-.6-3.68.43-4.87,1.54-21.66,20.25-41.42,42.07-55.17,68.68-3.22,6.22-2.46,7.64,4.28,7.68,16.7.1,33.4-.1,50.1.11,6,.07,7.89-2.54,7.75-8.17C261.26,121.8,261.43,111.52,261.42,101.24Zm13.47,341.17c2-.49,3-.5,3.65-.91a50.58,50.58,0,0,0,4.75-3.26c23-17.6,37.37-41.34,48.22-67.59,2.87-6.93,2.15-8.06-5.54-8.1-14.56-.08-29.12.16-43.68-.11-6.08-.11-8.32,2.08-8.24,8.25.25,21.62.08,43.25.12,64.88C274.18,437.6,274.59,439.64,274.89,442.41Zm.76-381.68c-.7,2.46-1.42,3.82-1.42,5.18-.07,22.91,0,45.82-.09,68.73,0,4.31,2.24,5.54,6.05,5.53q21.51-.06,43,0c4.94,0,6.86-2,4.55-6.78-12-25-26.44-48.43-46.18-68.22C280.06,63.63,278.08,62.53,275.65,60.73Z"/></g><g class="cls-3"><path d="M177.6,301.11s5.94,75.92,45.22,154.82c0,0,108,15.52,180.57-72.29C403.39,383.64,279.93,381.33,177.6,301.11Z"/><path d="M168.74,218.53S106,261.68,57.36,335.18c0,0,40.6,101.22,153,120.13C210.33,455.31,150.53,347.28,168.74,218.53Z"/><path d="M238.11,168.12S169.35,135.36,81.38,130c0,0-67.33,85.78-27.5,192.55C53.88,322.57,117.52,216.74,238.11,168.12Z"/><path d="M315,201.92s-6.65-75.87-46.66-154.4c0,0-108.08-14.51-179.89,74C88.43,121.48,211.91,122.65,315,201.92Z"/><path d="M324.39,286.1s62.51-43.51,110.72-117.29c0,0-41.19-101-153.66-119.25C281.45,49.56,341.87,157.25,324.39,286.1Z"/><path d="M254.24,334.83s68.59,33.11,156.53,38.9c0,0,67.77-85.44,28.49-192.4C439.26,181.33,375.08,286.82,254.24,334.83Z"/><circle class="cls-4" cx="246.75" cy="252.06" r="230.75"/></g><g class="cls-5"><ellipse class="cls-6" cx="267.19" cy="252.07" rx="229.7" ry="230.75"/></g><text class="cls-7" transform="translate(-530.14 447.43)">361 DEGREES</text></svg>