<svg id="Calque_1" data-name="Calque 1" xmlns="http://www.w3.org/2000/svg" viewBox="0 0 768 768"><defs><style>.cls-1{font-size:55px;font-family:FalconPunch, Falcon Punch;}.cls-2{letter-spacing:-0.1em;}</style></defs><title>Plan de travail 8</title><path d="M383.29,233.94c78.62-.18,140.46,61,140.71,140S460.58,513.45,384.78,514.05c-77.58.62-141.34-62.76-140.77-139.73A139,139,0,0,1,383.29,233.94Zm74.95,146.13c-3.24,0-4.69,1.06-5.08,4.44-1.3,11.13-2.72,22.27-4.48,33.33-.82,5.16-2.54,10.18-3.88,15.26-1.07,4.06-.38,5.27,3.69,5.29,15.22.08,30.44.17,45.66-.14a8.08,8.08,0,0,0,5.72-3.68,118.63,118.63,0,0,0,14.85-50.41c.21-3.18-1.39-4.09-4.23-4.07-8.78.06-17.56,0-26.34,0S466.86,380.19,458.23,380.07Zm50.87-11.93c5.51,0,5.65-.43,5.36-5.75-.9-16.82-6.27-32.31-13.47-47.34-1.9-4-4.4-5.55-8.85-5.48-14.21.24-28.43.06-42.64.11-5.34,0-6,.86-4.45,6a202.47,202.47,0,0,1,8,46.93c.22,4.34,2.06,5.76,6.33,5.62,8.34-.27,16.7-.08,25.06-.08S500.9,368.17,509.11,368.14ZM316.39,438.41c4.53-.06,5.23-1.05,3.9-5.35a183.15,183.15,0,0,1-8.41-48.13c-.12-3.59-1.56-4.88-5.07-4.86q-24.59.14-49.19,0c-3.39,0-4.66,1.06-4.47,4.62,1,18,6.49,34.67,15.11,50.33.94,1.71,3.88,3.14,6,3.26,7,.4,14,.15,21.07.15S309.37,438.49,316.39,438.41Zm-10-70.22c3.59.06,5.36-1.06,5.45-5,.36-16,3.54-31.57,8-46.91,1.61-5.54.9-6.62-4.75-6.63-13.48,0-27,0-40.45,0-3.08,0-5.37.84-6.84,3.71-8,15.65-13.71,31.94-14.64,49.69-.2,3.82,1,5.28,4.88,5.18,8.06-.21,16.12-.06,24.18-.06S298.37,368.05,306.43,368.19Zm133,0c3.8.07,5.28-1.4,5-5.23a210.07,210.07,0,0,0-9.05-48c-1.17-3.79-3.18-5.41-7.26-5.35-11.85.2-23.7,0-35.55.08-5,0-6,1-6.06,5.84-.06,15.8.05,31.6-.07,47.4,0,4.08,1.72,5.36,5.58,5.28,7.9-.17,15.8-.05,23.7-.05S431.57,368,439.47,368.19Zm-47.78,11.87c-3.8-.08-5.21,1.47-5.19,5.21q.14,23.72,0,47.45c0,4.14,1.7,5.79,5.79,5.75q18.23-.16,36.47,0c3.49,0,5.38-1.39,6.42-4.66a203.43,203.43,0,0,0,9.33-48.89c.21-3.32-1-4.89-4.48-4.85-8.2.1-16.4,0-24.6,0C407.51,380.11,399.6,380.22,391.69,380.06ZM377.9,314.54c.07-3.61-1.37-4.94-4.92-4.91q-18.43.16-36.87,0c-3.25,0-5.39,1.14-6.13,4.35-2.65,11.47-5.43,22.9-7.8,34.43-1,5-1.2,10.13-1.68,15.22-.29,3.08,1.1,4.55,4.34,4.54q24.36-.1,48.72,0c3.27,0,4.37-1.36,4.33-4.48-.1-8.34,0-16.68,0-25C377.85,330.63,377.74,322.58,377.9,314.54Zm0,70.12c.06-3.45-1.31-4.61-4.68-4.59-15.94.1-31.89.13-47.83,0-4,0-5.44,1.72-4.88,5.31,1.92,12.36,3.85,24.72,6,37,.71,4,2.35,7.81,3.44,11.74.83,3,2.71,4.3,5.76,4.29q18.87,0,37.74,0c3.17,0,4.4-1.51,4.37-4.61-.09-8.34,0-16.68,0-25C377.85,400.75,377.75,392.7,377.9,384.66Zm31.4,119.18q47.05-10.36,76.81-48.26A19.5,19.5,0,0,0,488,451.4c-1.55-.55-3.09-1.57-4.64-1.59-13.19-.13-26.38,0-39.56-.09-3.24,0-5.38,1-6.89,4.22-7.76,16.36-18.06,31.09-29.55,45a56.39,56.39,0,0,0-3.23,5.17A41.92,41.92,0,0,0,409.3,503.83ZM321.51,297.9c3.2.1,5.19-1,6.57-3.91,7.86-16.47,18.22-31.31,29.75-45.38.83-1,1.11-2.49,1.65-3.75-1.34-.16-2.78-.69-4-.41a145.15,145.15,0,0,0-41.95,16.18c-13.63,8-24.37,19.05-32.83,32.34-2.18,3.42-1.43,4.77,2.62,4.84,6.59.11,13.18,0,19.77,0C309.22,297.85,315.37,297.71,321.51,297.9Zm88.65-45.67c11.32,13.26,22,26.92,30.2,42.45a6.87,6.87,0,0,0,5,3c12.88.26,25.77.18,38.65.09,1.31,0,2.61-.86,3.91-1.32a14.79,14.79,0,0,0-1.51-3.46c-17.44-22.1-38.32-39.37-66.17-46.66-4.79-1.25-9.74-1.89-14.61-2.82l-.89,2C406.57,247.77,408.3,250.06,410.16,252.24Zm-55.25,247a221.25,221.25,0,0,1-26.68-44.68c-1.59-3.52-3.78-5-7.75-4.88-11.85.23-23.7,0-35.55.15-1.74,0-3.47.91-5.21,1.4a26.6,26.6,0,0,0,2.32,4.87c10.45,13.91,22.4,26.24,37.82,34.75a132.21,132.21,0,0,0,33.8,13,20.62,20.62,0,0,0,3.73,0A35.51,35.51,0,0,0,354.91,499.21Zm31.68-1.1c0,1.92.82,3.82,1.26,5.73,1.89-.88,4-1.44,5.62-2.69C407,490.51,416,476.4,423.56,461.26c1-2.09,2.2-4.14,3.08-6.3,1.37-3.37.31-5.13-3.3-5.17-10.67-.1-21.35,0-32,0-3.61,0-4.81,2-4.79,5.35.06,7.46,0,14.92,0,22.38h0C386.53,484.36,386.44,491.24,386.59,498.11Zm-.1-205.8c-.09,3.85,1.22,5.63,5.29,5.58,11.41-.14,22.82,0,34.23-.07,4.6,0,5.12-1,2.92-5.25-9.39-18.18-22.9-33.08-37.69-46.92-.81-.76-2.66-1.46-3.33-1.05-.83.51-1.29,2.2-1.31,3.38-.11,7.75-.06,15.51-.06,23.26C386.54,278.27,386.66,285.29,386.49,292.31Zm-8.66,207.33c0-14.77-.09-29.55.09-44.32.05-4.22-1.48-5.71-5.63-5.63-9.94.18-19.89,0-29.84.07-5.25,0-5.74.8-3.78,5.53,7.41,17.94,17.25,34.15,32.95,46.18a34.49,34.49,0,0,0,3.24,2.22,11.81,11.81,0,0,0,2.49.62C377.55,502.42,377.83,501,377.83,499.64Zm-5.08-253c-13.48,13.52-23.34,29.5-31.55,46.6-1.58,3.29-.27,4.64,3.11,4.63q14.7,0,29.4,0c2.6,0,4.14-.83,4.13-3.77-.05-15.65,0-31.3-.06-47a16.89,16.89,0,0,0-1-3.54A37.32,37.32,0,0,0,372.76,246.61Z"/><path d="M383.85,539.23a164.53,164.53,0,0,1-104.78-37.5c-70.43-57.86-80.65-162.23-22.79-232.65a165.3,165.3,0,0,1,232.65-22.79c70.43,57.86,80.65,162.23,22.79,232.65h0A165,165,0,0,1,383.85,539.23Zm.42-316.94q-7.5,0-15.07.74a150.7,150.7,0,0,0-102.42,54.68c-53.1,64.63-43.71,160.41,20.92,213.5a151.85,151.85,0,0,0,213.5-20.92c53.1-64.63,43.71-160.41-20.92-213.5A150.56,150.56,0,0,0,384.28,222.29Z"/><text class="cls-1" transform="translate(141.01 598.67)"><tspan class="cls-2">&lt; </tspan><tspan x="39.43" y="0">web squad</tspan><tspan class="cls-2" x="434.44" y="0" xml:space="preserve"> &gt;</tspan></text></svg>