<svg xmlns="http://www.w3.org/2000/svg" viewBox="0 0 768 768"><defs><style>.cls-1{font-size:55px;font-family:FalconPunch, Falcon Punch;}.cls-2{fill:none;}</style></defs><title>Plan de travail 9</title><g id="Calque_1" data-name="Calque 1"><text class="cls-1" transform="translate(124.84 596.86)">Visual league</text></g><g id="Calque_2" data-name="Calque 2"><rect class="cls-2" x="377.7" y="175" width="187.2" height="384" transform="translate(942.6 734) rotate(-180)"/><path d="M336.5,407.69s4.08,52.15,31.06,106.34c0,0,74.15,10.66,124-49.66C491.59,464.38,406.79,462.79,336.5,407.69Z"/><path d="M330.42,351s-43.1,29.64-76.51,80.13c0,0,27.89,69.52,105.08,82.51C359,513.61,317.91,439.4,330.42,351Z"/><path d="M378.06,316.34s-47.23-22.5-107.65-26.17c0,0-46.25,58.93-18.89,132.26C251.52,422.43,295.23,349.74,378.06,316.34Z"/><path d="M430.86,339.56s-4.56-52.11-32-106.05c0,0-74.24-10-123.57,50.8C275.25,284.31,360.07,285.11,430.86,339.56Z"/><path d="M437.33,397.38s42.93-29.89,76-80.56c0,0-28.29-69.36-105.55-81.91C407.83,234.91,449.34,308.88,437.33,397.38Z"/><path d="M389.15,430.85s47.11,22.74,107.52,26.72c0,0,46.55-58.69,19.57-132.16C516.23,325.41,472.15,397.88,389.15,430.85Z"/><path d="M383.85,539.23a164.53,164.53,0,0,1-104.78-37.5c-70.43-57.86-80.65-162.23-22.79-232.65s162.22-80.65,232.65-22.79,80.65,162.23,22.79,232.65h0A165,165,0,0,1,383.85,539.23Zm.28-316.86a151.45,151.45,0,0,0-117.35,55.34c-53.1,64.63-43.71,160.41,20.92,213.5s160.41,43.71,213.5-20.92h0c53.1-64.63,43.71-160.41-20.92-213.5A151,151,0,0,0,384.13,222.37Z"/></g></svg>