<svg id="Calque_1" data-name="Calque 1" xmlns="http://www.w3.org/2000/svg" xmlns:xlink="http://www.w3.org/1999/xlink" viewBox="0 0 768 768"><defs><style>.cls-1{fill:none;}.cls-2{font-size:55px;font-family:FalconPunch, Falcon Punch;}.cls-3{clip-path:url(#clip-path);}.cls-4{clip-path:url(#clip-path-2);}.cls-5{clip-path:url(#clip-path-3);}</style><clipPath id="clip-path"><rect class="cls-1" x="390.3" y="225.02" width="142.2" height="303.36"/></clipPath><clipPath id="clip-path-2"><rect class="cls-1" x="212.44" y="214.5" width="167.11" height="339"/></clipPath><clipPath id="clip-path-3"><rect class="cls-1" x="390.25" y="214.21" width="164.31" height="339" transform="translate(944.81 767.42) rotate(-180)"/></clipPath></defs><title>Plan de travail 11</title><text class="cls-2" transform="translate(162.33 596.86)">361 DEGREES</text><g class="cls-3"><path d="M523.65,382.79C524.2,456.69,463,517.55,388.49,517c-72.78-.58-133.92-58.58-133.68-134.54S314.43,247.83,389.92,248A133.46,133.46,0,0,1,523.65,382.79Zm-230.56,5.55c-8.43,0-16.86,0-25.29,0-2.73,0-4.26.85-4.06,3.91A113.9,113.9,0,0,0,278,440.63a7.76,7.76,0,0,0,5.49,3.53c14.61.29,29.23.21,43.84.13,3.91,0,4.57-1.18,3.54-5.08-1.29-4.87-2.94-9.69-3.73-14.65-1.7-10.63-3.05-21.31-4.3-32-.38-3.24-1.77-4.3-4.88-4.26C309.67,388.43,301.38,388.35,293.09,388.35Zm-.34-11.49c8,0,16-.19,24.06.08,4.1.13,5.86-1.23,6.07-5.4a194.41,194.41,0,0,1,7.73-45.06c1.45-4.93.85-5.74-4.27-5.76-13.65,0-27.3.13-40.95-.1-4.27-.07-6.67,1.44-8.5,5.26-6.91,14.43-12.07,29.3-12.93,45.45-.27,5.11-.14,5.51,5.15,5.52C277,376.88,284.87,376.86,292.75,376.86Zm181.63,67.48c6.75,0,13.51.24,20.23-.15,2-.12,4.84-1.48,5.74-3.13,8.28-15,13.57-31,14.51-48.33.19-3.41-1-4.45-4.29-4.43q-23.61.14-47.23,0c-3.37,0-4.75,1.22-4.87,4.67a175.85,175.85,0,0,1-8.07,46.21c-1.27,4.12-.6,5.08,3.74,5.14C460.89,444.4,467.64,444.34,474.39,444.34Zm12.55-67.48c7.74,0,15.48-.14,23.22.06,3.76.1,4.87-1.31,4.68-5-.89-17-6.4-32.68-14.05-47.71-1.4-2.76-3.61-3.58-6.56-3.56-12.95.08-25.89,0-38.84,0-5.42,0-6.1,1-4.56,6.37,4.27,14.72,7.32,29.66,7.67,45,.09,3.77,1.78,4.84,5.23,4.78C471.45,376.77,479.2,376.86,486.94,376.86Zm-128.2,0c7.59,0,15.17-.12,22.76,0,3.7.08,5.39-1.15,5.35-5.07-.12-15.17,0-30.34-.07-45.51,0-4.68-1-5.59-5.82-5.61-11.38,0-22.76.11-34.13-.08-3.92-.07-5.85,1.5-7,5.13a201.7,201.7,0,0,0-8.69,46.11c-.25,3.67,1.17,5.09,4.82,5C343.56,376.76,351.15,376.86,358.73,376.86Zm.34,11.49c-7.87,0-15.75.06-23.62,0-3.33,0-4.51,1.47-4.3,4.66a195.32,195.32,0,0,0,9,46.94c1,3.14,2.82,4.5,6.17,4.47q17.51-.17,35,0c3.93,0,5.58-1.55,5.56-5.53q-.15-22.78,0-45.56c0-3.59-1.33-5.07-5-5C374.26,388.45,366.66,388.34,359.07,388.35Zm36.07-39.78c0,8,.07,16,0,24,0,3,1,4.32,4.16,4.3q23.39-.13,46.78,0c3.11,0,4.44-1.4,4.16-4.35-.45-4.88-.63-9.83-1.61-14.61-2.27-11.06-4.95-22-7.49-33.06-.71-3.09-2.77-4.2-5.89-4.18q-17.7.14-35.4,0c-3.41,0-4.79,1.25-4.73,4.71C395.24,333.11,395.14,340.84,395.14,348.56Zm0,67.32c0,8,.05,16,0,24,0,3,1.15,4.44,4.2,4.43q18.12,0,36.24,0c2.93,0,4.73-1.25,5.53-4.12,1-3.78,2.62-7.44,3.31-11.28,2.11-11.82,4-23.69,5.81-35.55.54-3.45-.88-5.13-4.69-5.1-15.31.13-30.62.11-45.93,0-3.23,0-4.55,1.1-4.49,4.41C395.24,400.43,395.14,408.16,395.15,415.89Zm-25.28,91.56a54.14,54.14,0,0,0-3.1-5c-11-13.39-20.92-27.53-28.37-43.24-1.45-3.05-3.5-4.07-6.61-4.05-12.66,0-25.33,0-38,.08-1.49,0-3,1-4.45,1.52a18.72,18.72,0,0,0,1.85,4q28.59,36.33,73.75,46.34A40.25,40.25,0,0,0,369.87,507.45Zm97.07-198.09c6.33,0,12.65.08,19,0,3.89-.07,4.61-1.37,2.52-4.65a93.7,93.7,0,0,0-31.52-31,139.36,139.36,0,0,0-40.28-15.54c-1.19-.27-2.57.24-3.86.39a14.57,14.57,0,0,0,1.58,3.6c11.07,13.51,21,27.76,28.56,43.58,1.32,2.77,3.24,3.85,6.31,3.76C455.13,309.23,461,309.36,466.94,309.35Zm-97.66-50.23-.85-1.92c-4.68.89-9.43,1.5-14,2.71-26.74,7-46.79,23.59-63.53,44.8a14.2,14.2,0,0,0-1.45,3.32c1.25.44,2.5,1.26,3.76,1.27,12.37.09,24.75.16,37.11-.08a6.59,6.59,0,0,0,4.83-2.89c7.84-14.91,18.13-28,29-40.76C365.9,263.47,367.56,261.28,369.28,259.13Zm45.48,248a19.8,19.8,0,0,0,3.58,0,126.94,126.94,0,0,0,32.46-12.49c14.81-8.16,26.28-20,36.31-33.36a25.54,25.54,0,0,0,2.23-4.67c-1.67-.47-3.33-1.32-5-1.34-11.38-.12-22.76.08-34.14-.14-3.8-.07-5.91,1.31-7.44,4.68a212.44,212.44,0,0,1-25.61,42.9A34.1,34.1,0,0,0,414.77,507.15Zm-28-25.31h0c0-7.16,0-14.32,0-21.48,0-3.19-1.13-5.14-4.6-5.13-10.25,0-20.5-.07-30.75,0-3.47,0-4.48,1.73-3.17,5,.84,2.07,1.95,4,3,6,7.28,14.54,15.9,28.09,28.89,38.29,1.53,1.2,3.59,1.74,5.4,2.58a28.32,28.32,0,0,0,1.21-5.5C386.9,495,386.81,488.44,386.81,481.84Zm0-198c0-7.44.05-14.89-.05-22.33,0-1.14-.46-2.76-1.26-3.25-.64-.39-2.42.28-3.19,1-14.21,13.28-27.17,27.59-36.19,45-2.11,4.08-1.61,5,2.81,5,11,.07,21.91-.07,32.87.07,3.91,0,5.17-1.66,5.08-5.36C386.69,297.31,386.8,290.56,386.79,283.82Zm8.84,223.78A11.34,11.34,0,0,0,398,507a33.12,33.12,0,0,0,3.11-2.14c15.07-11.54,24.51-27.12,31.63-44.34,1.88-4.55,1.41-5.28-3.63-5.31-9.55-.05-19.1.1-28.65-.07-4-.07-5.46,1.36-5.41,5.41.17,14.18.05,28.37.08,42.56C395.16,504.45,395.43,505.78,395.63,507.6Zm.49-250.35a16.22,16.22,0,0,0-.93,3.4c0,15,0,30.06-.06,45.08,0,2.83,1.47,3.63,4,3.62q14.12,0,28.23,0c3.24,0,4.5-1.29,3-4.45C422.44,288.49,413,273.14,400,260.16A35.84,35.84,0,0,0,396.12,257.25Z"/></g><g class="cls-4"><path d="M331.81,414.92s3.9,49.8,29.66,101.55c0,0,70.8,10.18,118.44-47.42C479.91,469,398.93,467.53,331.81,414.92Z"/><path d="M326,360.75s-41.16,28.3-73.06,76.52c0,0,26.63,66.39,100.34,78.79C353.28,516.06,314.06,445.2,326,360.75Z"/><path d="M371.5,327.69s-45.1-21.48-102.8-25c0,0-44.16,56.27-18,126.3C250.66,429,292.4,359.58,371.5,327.69Z"/><path d="M421.92,349.86s-4.36-49.76-30.6-101.27c0,0-70.9-9.52-118,48.51C273.32,297.1,354.31,297.87,421.92,349.86Z"/><path d="M428.1,405.07s41-28.54,72.62-76.93c0,0-27-66.23-100.79-78.22C399.93,249.92,439.56,320.56,428.1,405.07Z"/><path d="M382.08,437s45,21.71,102.67,25.52c0,0,44.45-56,18.68-126.2C503.44,336.35,461.35,405.55,382.08,437Z"/><path d="M377,540.53A157.81,157.81,0,1,1,477.37,260.78c67.25,55.25,77,154.91,21.77,222.17h0A157.61,157.61,0,0,1,377,540.53Zm.4-302.65q-7.16,0-14.39.71a144.86,144.86,0,0,0-77.83,256.09c61.72,50.71,153.18,41.74,203.88-20l5,4.12-5-4.12c50.7-61.72,41.74-153.18-20-203.88A143.77,143.77,0,0,0,377.43,237.87Z"/></g><g class="cls-5"><path d="M390.86,540.62q-7.74,0-15.54-.76a155.93,155.93,0,0,1-106.19-56.91h0c-55-67.25-45.27-166.91,21.67-222.15A156.7,156.7,0,0,1,512,282.56c55,67.25,45.27,166.9-21.67,222.15A155.59,155.59,0,0,1,390.86,540.62ZM279.19,474.72a143.7,143.7,0,0,0,202.89,20C543.52,444,552.44,352.52,502,290.79a143.69,143.69,0,0,0-202.89-20c-61.44,50.71-70.36,142.17-19.88,203.9Z"/></g></svg>